<mxfile host="app.diagrams.net" agent="Mozilla/5.0 (Windows NT 10.0; Win64; x64; rv:131.0) Gecko/20100101 Firefox/131.0" version="26.0.6">
  <diagram name="Page-1" id="j9KVeVCPFOLyzlObmtzI">
    <mxGraphModel dx="1877" dy="575" grid="1" gridSize="10" guides="1" tooltips="1" connect="1" arrows="1" fold="1" page="1" pageScale="1" pageWidth="827" pageHeight="1169" math="0" shadow="0">
      <root>
        <mxCell id="0" />
        <mxCell id="1" parent="0" />
        <mxCell id="7EhgKqNySJQiXrnXWurI-1" value="Użytkownik" style="swimlane;fontStyle=0;childLayout=stackLayout;horizontal=1;startSize=30;horizontalStack=0;resizeParent=1;resizeParentMax=0;resizeLast=0;collapsible=1;marginBottom=0;whiteSpace=wrap;html=1;" vertex="1" parent="1">
          <mxGeometry x="390" y="10" width="260" height="260" as="geometry" />
        </mxCell>
        <mxCell id="7EhgKqNySJQiXrnXWurI-2" value="&lt;div&gt;- id : int&lt;/div&gt;&lt;div&gt;+ czy_wypozycza : bool&lt;/div&gt;&lt;div&gt;+ wypozyczony_rower : *Rower&lt;br&gt;&lt;/div&gt;&lt;div&gt;+ saldo : float&lt;/div&gt;&lt;div&gt;+ lokacja : gps coordinates&lt;/div&gt;&lt;div&gt;- dane_osobowe : string&lt;br&gt;&lt;/div&gt;" style="text;strokeColor=none;fillColor=none;align=left;verticalAlign=middle;spacingLeft=4;spacingRight=4;overflow=hidden;points=[[0,0.5],[1,0.5]];portConstraint=eastwest;rotatable=0;whiteSpace=wrap;html=1;" vertex="1" parent="7EhgKqNySJQiXrnXWurI-1">
          <mxGeometry y="30" width="260" height="110" as="geometry" />
        </mxCell>
        <mxCell id="7EhgKqNySJQiXrnXWurI-3" value="&lt;div&gt;+ doladuj_konto (kwota : float) : void&lt;br&gt;+ znajdz_pobliski_rower(wykaz rowerów : Wykaz Rowerów,lokacja : gps coordinates) : *Rower&lt;br&gt;+ utworz_wypozyczenie (*self, *Rower) : Wypożyczenie&lt;br&gt;&lt;/div&gt;" style="text;strokeColor=default;fillColor=none;align=left;verticalAlign=middle;spacingLeft=4;spacingRight=4;overflow=hidden;points=[[0,0.5],[1,0.5]];portConstraint=eastwest;rotatable=0;whiteSpace=wrap;html=1;" vertex="1" parent="7EhgKqNySJQiXrnXWurI-1">
          <mxGeometry y="140" width="260" height="120" as="geometry" />
        </mxCell>
        <mxCell id="7EhgKqNySJQiXrnXWurI-5" value="Rower" style="swimlane;fontStyle=0;childLayout=stackLayout;horizontal=1;startSize=30;horizontalStack=0;resizeParent=1;resizeParentMax=0;resizeLast=0;collapsible=1;marginBottom=0;whiteSpace=wrap;html=1;" vertex="1" parent="1">
          <mxGeometry x="-100" y="240" width="190" height="210" as="geometry" />
        </mxCell>
        <mxCell id="7EhgKqNySJQiXrnXWurI-6" value="- id : int&lt;br&gt;+ czy_wypozyczony: bool&lt;br&gt;+ lokacja : gps coordinates" style="text;strokeColor=none;fillColor=none;align=left;verticalAlign=middle;spacingLeft=4;spacingRight=4;overflow=hidden;points=[[0,0.5],[1,0.5]];portConstraint=eastwest;rotatable=0;whiteSpace=wrap;html=1;" vertex="1" parent="7EhgKqNySJQiXrnXWurI-5">
          <mxGeometry y="30" width="190" height="130" as="geometry" />
        </mxCell>
        <mxCell id="7EhgKqNySJQiXrnXWurI-7" value="Item 2" style="text;strokeColor=default;fillColor=none;align=left;verticalAlign=middle;spacingLeft=4;spacingRight=4;overflow=hidden;points=[[0,0.5],[1,0.5]];portConstraint=eastwest;rotatable=0;whiteSpace=wrap;html=1;" vertex="1" parent="7EhgKqNySJQiXrnXWurI-5">
          <mxGeometry y="160" width="190" height="50" as="geometry" />
        </mxCell>
        <mxCell id="7EhgKqNySJQiXrnXWurI-9" value="Wypożyczenie" style="swimlane;fontStyle=0;childLayout=stackLayout;horizontal=1;startSize=30;horizontalStack=0;resizeParent=1;resizeParentMax=0;resizeLast=0;collapsible=1;marginBottom=0;whiteSpace=wrap;html=1;" vertex="1" parent="1">
          <mxGeometry x="680" y="280" width="170" height="200" as="geometry" />
        </mxCell>
        <mxCell id="7EhgKqNySJQiXrnXWurI-10" value="- id : int&lt;br&gt;+czy_aktywne : bool&lt;br&gt;+ uzytkownik: *Użytkownik&lt;br&gt;+rower : *Rower&lt;br&gt;+przejechany_czas : float" style="text;strokeColor=none;fillColor=none;align=left;verticalAlign=middle;spacingLeft=4;spacingRight=4;overflow=hidden;points=[[0,0.5],[1,0.5]];portConstraint=eastwest;rotatable=0;whiteSpace=wrap;html=1;" vertex="1" parent="7EhgKqNySJQiXrnXWurI-9">
          <mxGeometry y="30" width="170" height="90" as="geometry" />
        </mxCell>
        <mxCell id="7EhgKqNySJQiXrnXWurI-11" value="Item 2" style="text;strokeColor=default;fillColor=none;align=left;verticalAlign=middle;spacingLeft=4;spacingRight=4;overflow=hidden;points=[[0,0.5],[1,0.5]];portConstraint=eastwest;rotatable=0;whiteSpace=wrap;html=1;" vertex="1" parent="7EhgKqNySJQiXrnXWurI-9">
          <mxGeometry y="120" width="170" height="80" as="geometry" />
        </mxCell>
        <mxCell id="7EhgKqNySJQiXrnXWurI-13" value="Wykaz Rowerów" style="swimlane;fontStyle=0;childLayout=stackLayout;horizontal=1;startSize=30;horizontalStack=0;resizeParent=1;resizeParentMax=0;resizeLast=0;collapsible=1;marginBottom=0;whiteSpace=wrap;html=1;" vertex="1" parent="1">
          <mxGeometry x="410" y="430" width="140" height="90" as="geometry" />
        </mxCell>
        <mxCell id="7EhgKqNySJQiXrnXWurI-14" value="+ pierwszy : *Rower" style="text;strokeColor=none;fillColor=none;align=left;verticalAlign=middle;spacingLeft=4;spacingRight=4;overflow=hidden;points=[[0,0.5],[1,0.5]];portConstraint=eastwest;rotatable=0;whiteSpace=wrap;html=1;" vertex="1" parent="7EhgKqNySJQiXrnXWurI-13">
          <mxGeometry y="30" width="140" height="30" as="geometry" />
        </mxCell>
        <mxCell id="7EhgKqNySJQiXrnXWurI-15" value="Item 2" style="text;strokeColor=default;fillColor=none;align=left;verticalAlign=middle;spacingLeft=4;spacingRight=4;overflow=hidden;points=[[0,0.5],[1,0.5]];portConstraint=eastwest;rotatable=0;whiteSpace=wrap;html=1;" vertex="1" parent="7EhgKqNySJQiXrnXWurI-13">
          <mxGeometry y="60" width="140" height="30" as="geometry" />
        </mxCell>
        <mxCell id="7EhgKqNySJQiXrnXWurI-17" style="rounded=0;orthogonalLoop=1;jettySize=auto;html=1;exitX=1;exitY=0.5;exitDx=0;exitDy=0;entryX=0;entryY=0.5;entryDx=0;entryDy=0;endArrow=diamondThin;endFill=1;strokeWidth=1;endSize=12;" edge="1" parent="1" source="7EhgKqNySJQiXrnXWurI-6" target="7EhgKqNySJQiXrnXWurI-13">
          <mxGeometry relative="1" as="geometry" />
        </mxCell>
        <mxCell id="7EhgKqNySJQiXrnXWurI-19" style="rounded=0;orthogonalLoop=1;jettySize=auto;html=1;exitX=0;exitY=0.5;exitDx=0;exitDy=0;entryX=1;entryY=0.5;entryDx=0;entryDy=0;endArrow=classic;endFill=1;dashed=1;endSize=12;" edge="1" parent="1" source="7EhgKqNySJQiXrnXWurI-10" target="7EhgKqNySJQiXrnXWurI-2">
          <mxGeometry relative="1" as="geometry" />
        </mxCell>
        <mxCell id="7EhgKqNySJQiXrnXWurI-20" value="" style="endArrow=none;html=1;rounded=0;exitX=1;exitY=0.5;exitDx=0;exitDy=0;entryX=0;entryY=0.5;entryDx=0;entryDy=0;" edge="1" parent="1" source="7EhgKqNySJQiXrnXWurI-6" target="7EhgKqNySJQiXrnXWurI-2">
          <mxGeometry width="50" height="50" relative="1" as="geometry">
            <mxPoint x="390" y="300" as="sourcePoint" />
            <mxPoint x="440" y="250" as="targetPoint" />
          </mxGeometry>
        </mxCell>
      </root>
    </mxGraphModel>
  </diagram>
</mxfile>
